<svg width="25" height="24" viewBox="0 0 25 24" fill="none" xmlns="http://www.w3.org/2000/svg">
<g clip-path="url(#clip0_1_58)">
<path d="M12.5 24C19.1274 24 24.5 18.6274 24.5 12C24.5 5.37258 19.1274 0 12.5 0C5.87258 0 0.5 5.37258 0.5 12C0.5 18.6274 5.87258 24 12.5 24Z" fill="#3B5998"/>
<path d="M15.5168 12.4697H13.3755V20.3143H10.1314V12.4697H8.58841V9.71284H10.1314V7.92882C10.1314 6.65305 10.7374 4.65533 13.4044 4.65533L15.8075 4.66539V7.34142H14.0639C13.7779 7.34142 13.3757 7.48431 13.3757 8.09289V9.71541H15.8002L15.5168 12.4697Z" fill="white"/>
</g>
<defs>
<clipPath id="clip0_1_58">
<rect width="24" height="24" fill="white" transform="translate(0.5)"/>
</clipPath>
</defs>
</svg>
