<svg width="25" height="24" viewBox="0 0 25 24" fill="none" xmlns="http://www.w3.org/2000/svg">
<g clip-path="url(#clip0_1_55)">
<path d="M5.81891 14.5035L4.9835 17.6222L1.93011 17.6868C1.01759 15.9943 0.5 14.0578 0.5 12C0.5 10.0101 0.983938 8.13362 1.84175 6.48132H1.84241L4.56078 6.9797L5.75159 9.68176C5.50236 10.4084 5.36652 11.1884 5.36652 12C5.36661 12.8809 5.52617 13.7249 5.81891 14.5035Z" fill="#FBBB00"/>
<path d="M24.2903 9.75824C24.4282 10.4841 24.5 11.2338 24.5 12C24.5 12.8591 24.4097 13.6971 24.2376 14.5055C23.6535 17.2563 22.1271 19.6582 20.0126 21.358L20.0119 21.3574L16.588 21.1827L16.1034 18.1576C17.5065 17.3347 18.603 16.047 19.1805 14.5055H12.7638V9.75824H19.2742H24.2903Z" fill="#518EF8"/>
<path d="M20.0119 21.3574L20.0125 21.358C17.9561 23.011 15.3437 24 12.5 24C7.93011 24 3.95694 21.4457 1.93011 17.6868L5.81891 14.5035C6.8323 17.2081 9.44132 19.1334 12.5 19.1334C13.8147 19.1334 15.0464 18.778 16.1033 18.1576L20.0119 21.3574Z" fill="#28B446"/>
<path d="M20.1595 2.76262L16.2721 5.94525C15.1782 5.26153 13.8852 4.86656 12.5 4.86656C9.37206 4.86656 6.71425 6.88017 5.75163 9.68175L1.84239 6.48131H1.84174C3.83889 2.63077 7.86217 0 12.5 0C15.4116 0 18.0813 1.03716 20.1595 2.76262Z" fill="#F14336"/>
</g>
<defs>
<clipPath id="clip0_1_55">
<rect width="24" height="24" fill="white" transform="translate(0.5)"/>
</clipPath>
</defs>
</svg>
