<svg width="24" height="24" viewBox="0 0 24 24" fill="none" xmlns="http://www.w3.org/2000/svg">
<path d="M8 21C7.46957 21 6.96086 20.7893 6.58579 20.4142C6.21071 20.0391 6 19.5304 6 19L6 5C6 4.46957 6.21071 3.96086 6.58579 3.58579C6.96086 3.21071 7.46957 3 8 3L16 3C16.5304 3 17.0391 3.21071 17.4142 3.58579C17.7893 3.96086 18 4.46957 18 5L18 19C18 19.5304 17.7893 20.0391 17.4142 20.4142C17.0391 20.7893 16.5304 21 16 21L8 21Z" stroke="#2E0E16" stroke-width="1.5" stroke-linecap="round" stroke-linejoin="round"/>
<path d="M11 4L13 4" stroke="#2E0E16" stroke-width="1.5" stroke-linecap="round" stroke-linejoin="round"/>
<path d="M12 17L12 17.01" stroke="#2E0E16" stroke-width="1.5" stroke-linecap="round" stroke-linejoin="round"/>
</svg>
